<svg width="594" height="185" viewBox="0 0 594 185" fill="none" xmlns="http://www.w3.org/2000/svg">
<g clip-path="url(#clip0_31_351)">
<path d="M98.0411 36.601V36.5981L98.0396 36.601H98.0411Z" fill="#2EAEC7"/>
<path d="M64.5444 27.8398L41.5557 44.2178V76.9739L48.9352 82.2322C53.3036 78.9922 58.7013 77.0786 64.5444 77.0786C70.3876 77.0786 75.7853 78.9942 80.1537 82.2322L87.5332 76.9739V44.2178L64.5444 27.8398ZM64.4982 73.1988C57.5774 73.1988 51.9675 67.5566 51.9675 60.5959C51.9675 53.6352 57.5774 47.9929 64.4982 47.9929C71.4189 47.9929 77.0288 53.6352 77.0288 60.5959C77.0288 67.5566 71.4189 73.1988 64.4982 73.1988Z" fill="#2EAEC7"/>
<path d="M30.9546 36.123V36.6658L31.051 36.6018L30.9546 36.123Z" fill="#2EAEC7"/>
<path d="M30.9546 84.497V84.5378L31.051 84.3962L30.9546 84.497Z" fill="#2EAEC7"/>
<path d="M41.5555 44.2179L64.5442 27.84L64.5443 19.6849H51.2927C50.3886 19.6849 49.654 18.9462 49.654 18.0368C49.654 17.1275 50.3886 16.3888 51.2927 16.3888H64.5443V12.7048H36.7379C33.5436 12.7048 30.9546 15.3088 30.9546 18.5216V36.1231L31.051 36.6019L41.5574 44.2179H41.5555Z" fill="#76E0F5"/>
<path d="M41.5555 76.9739V44.2179L31.051 36.6018L30.9546 36.6658V84.4969L31.051 84.3962L41.5555 76.9739Z" fill="#52C7DE"/>
<path d="M38.2802 101.701C38.8296 93.7183 42.8991 86.7092 48.937 82.2302L41.5574 76.9719L31.051 84.3961L30.9546 84.5376V102.476C30.9546 105.689 33.5436 108.293 36.7379 108.293H64.5443V101.701H38.2802Z" fill="#32A2B8"/>
<path d="M98.0416 102.476V84.3961L87.5353 76.9739L80.1557 82.2322C86.1934 86.7092 90.261 93.7183 90.8125 101.703H64.5483V108.295H92.2622C95.4565 108.295 98.0455 105.691 98.0455 102.478L98.0416 102.476Z" fill="#0E6575"/>
<path d="M87.5332 44.218V76.9741L98.0397 84.3963H98.0417L98.0415 36.6018H98.0396L87.5332 44.218Z" fill="#178296"/>
<path d="M77.5106 16.3888C78.4147 16.3888 79.1493 17.1275 79.1493 18.0368C79.1493 18.9462 78.4147 19.6849 77.5106 19.6849H64.5444L64.5443 27.84L87.5331 44.2179L98.0395 36.6017L98.0396 36.5981V18.5216C98.0396 15.3088 95.4505 12.7048 92.2562 12.7048H64.5425V16.3888H77.5106Z" fill="#0B9CB8"/>
<path d="M64.498 73.1989C71.4186 73.1989 77.0285 67.5567 77.0285 60.596C77.0285 53.6353 71.4186 47.9929 64.498 47.9929C57.5771 47.9929 51.9673 53.6353 51.9673 60.596C51.9673 67.5567 57.5771 73.1989 64.498 73.1989Z" fill="#97D7E3"/>
<path d="M48.937 82.2304L64.5463 93.3501L80.1556 82.2304C75.7872 78.9905 70.3894 77.0769 64.5463 77.0769C58.7032 77.0769 53.3054 78.9925 48.937 82.2304Z" fill="#97D7E3"/>
<path d="M48.9371 82.2302C42.8992 86.7072 38.8316 93.7164 38.2803 101.701H64.5444V93.3518L48.9352 82.2322L48.9371 82.2302Z" fill="#8CC8D4"/>
<path d="M64.5444 101.701H90.8084C90.259 93.7183 86.1895 86.7092 80.1516 82.2302L64.5425 93.3499V101.699L64.5444 101.701Z" fill="#5AA2B0"/>
<path d="M51.293 16.3887C50.3889 16.3887 49.6543 17.1274 49.6543 18.0368C49.6543 18.9461 50.3889 19.6848 51.293 19.6848H64.5446V16.3887H51.293Z" fill="#B7E0E8"/>
<path d="M79.1493 18.0368C79.1493 17.1274 78.4147 16.3887 77.5106 16.3887H64.5444V19.6848H77.5106C78.4147 19.6848 79.1493 18.9461 79.1493 18.0368Z" fill="#74BECC"/>
<path d="M101.07 100.614L93.2999 108.519L85.5321 100.614L84.5132 93.3558L89.6077 90.2451L93.313 92.4932L96.9947 90.2451L102.089 93.3558L101.07 100.614Z" fill="#F96B6D"/>
<path fill-rule="evenodd" clip-rule="evenodd" d="M100.797 100.427L105.708 101.732L93.3013 114.001V107.997L100.797 100.427Z" fill="#BF1A1A"/>
<path fill-rule="evenodd" clip-rule="evenodd" d="M86.0637 100.427L81.1528 101.732L93.3009 114.001V107.997L86.0637 100.427Z" fill="#D06767"/>
<path fill-rule="evenodd" clip-rule="evenodd" d="M107 90.7673L105.708 101.732L100.797 100.426L101.572 93.3778L107 90.7673Z" fill="#D14646"/>
<path fill-rule="evenodd" clip-rule="evenodd" d="M79.8608 90.7673L81.1532 101.732L86.0641 100.426L85.2887 93.3778L79.8608 90.7673Z" fill="#EF7B7B"/>
<path fill-rule="evenodd" clip-rule="evenodd" d="M97.9538 84.502L107 90.7674L101.572 93.3778L96.9199 90.7674L97.9538 84.502Z" fill="#F04C4C"/>
<path fill-rule="evenodd" clip-rule="evenodd" d="M88.9073 84.502L79.8608 90.7674L85.2887 93.3778L89.9411 90.7674L88.9073 84.502Z" fill="#FFA9A9"/>
<path fill-rule="evenodd" clip-rule="evenodd" d="M97.9538 84.502L96.9199 90.7674L93.3013 92.8557V87.8956L97.9538 84.502Z" fill="#FE7E7E"/>
<path fill-rule="evenodd" clip-rule="evenodd" d="M88.9072 84.502L89.941 90.7674L93.3012 92.8557V87.8956L88.9072 84.502Z" fill="#DD2F2F"/>
</g>
<path d="M226.425 48.8111H213.143C212.765 46.633 212.066 44.7036 211.048 43.0227C210.03 41.3182 208.764 39.8741 207.249 38.6903C205.733 37.5066 204.005 36.6188 202.064 36.027C200.146 35.4115 198.075 35.1037 195.849 35.1037C191.896 35.1037 188.392 36.098 185.338 38.0866C182.284 40.0516 179.893 42.9399 178.165 46.7514C176.437 50.5393 175.572 55.1676 175.572 60.6364C175.572 66.1998 176.437 70.8873 178.165 74.6989C179.917 78.4867 182.308 81.3513 185.338 83.2926C188.392 85.2102 191.884 86.169 195.814 86.169C197.992 86.169 200.028 85.8849 201.922 85.3168C203.839 84.7249 205.556 83.8608 207.071 82.7244C208.61 81.5881 209.9 80.1913 210.942 78.5341C212.007 76.8769 212.741 74.983 213.143 72.8523L226.425 72.9233C225.928 76.3797 224.85 79.6231 223.193 82.6534C221.56 85.6837 219.417 88.3589 216.766 90.679C214.114 92.9754 211.013 94.7746 207.462 96.0767C203.911 97.3551 199.969 97.9943 195.636 97.9943C189.244 97.9943 183.539 96.5147 178.52 93.5554C173.501 90.5961 169.547 86.3229 166.659 80.7358C163.771 75.1487 162.327 68.4489 162.327 60.6364C162.327 52.8002 163.783 46.1004 166.695 40.5369C169.607 34.9498 173.572 30.6766 178.591 27.7173C183.61 24.758 189.292 23.2784 195.636 23.2784C199.685 23.2784 203.449 23.8466 206.929 24.983C210.409 26.1193 213.51 27.7884 216.233 29.9901C218.955 32.1681 221.193 34.8433 222.945 38.0156C224.72 41.1643 225.88 44.7628 226.425 48.8111ZM338.632 48.8111H325.35C324.972 46.633 324.273 44.7036 323.255 43.0227C322.237 41.3182 320.971 39.8741 319.456 38.6903C317.94 37.5066 316.212 36.6188 314.271 36.027C312.353 35.4115 310.282 35.1037 308.056 35.1037C304.103 35.1037 300.599 36.098 297.545 38.0866C294.491 40.0516 292.1 42.9399 290.372 46.7514C288.644 50.5393 287.779 55.1676 287.779 60.6364C287.779 66.1998 288.644 70.8873 290.372 74.6989C292.124 78.4867 294.515 81.3513 297.545 83.2926C300.599 85.2102 304.091 86.169 308.021 86.169C310.199 86.169 312.235 85.8849 314.129 85.3168C316.047 84.7249 317.763 83.8608 319.278 82.7244C320.817 81.5881 322.107 80.1913 323.149 78.5341C324.214 76.8769 324.948 74.983 325.35 72.8523L338.632 72.9233C338.135 76.3797 337.057 79.6231 335.4 82.6534C333.767 85.6837 331.624 88.3589 328.973 90.679C326.321 92.9754 323.22 94.7746 319.669 96.0767C316.118 97.3551 312.176 97.9943 307.843 97.9943C301.451 97.9943 295.746 96.5147 290.727 93.5554C285.708 90.5961 281.754 86.3229 278.866 80.7358C275.978 75.1487 274.534 68.4489 274.534 60.6364C274.534 52.8002 275.99 46.1004 278.902 40.5369C281.814 34.9498 285.779 30.6766 290.798 27.7173C295.817 24.758 301.499 23.2784 307.843 23.2784C311.892 23.2784 315.656 23.8466 319.136 24.983C322.616 26.1193 325.717 27.7884 328.44 29.9901C331.163 32.1681 333.4 34.8433 335.152 38.0156C336.927 41.1643 338.087 44.7628 338.632 48.8111ZM362.984 65.0398V97H350.129V24.2727H362.7V51.723H363.339C364.617 48.6454 366.594 46.2187 369.269 44.4432C371.968 42.6439 375.401 41.7443 379.567 41.7443C383.355 41.7443 386.658 42.5374 389.475 44.1236C392.292 45.7098 394.47 48.0298 396.009 51.0838C397.572 54.1378 398.353 57.8665 398.353 62.2699V97H385.498V64.2585C385.498 60.589 384.551 57.7363 382.657 55.7003C380.787 53.6406 378.159 52.6108 374.773 52.6108C372.501 52.6108 370.465 53.108 368.665 54.1023C366.89 55.0729 365.493 56.4815 364.475 58.3281C363.481 60.1747 362.984 62.4119 362.984 65.0398ZM411.457 97V42.4545H424.312V97H411.457ZM417.92 34.7131C415.884 34.7131 414.132 34.0384 412.664 32.6889C411.196 31.3158 410.462 29.6705 410.462 27.7528C410.462 25.8116 411.196 24.1662 412.664 22.8168C414.132 21.4437 415.884 20.7571 417.92 20.7571C419.979 20.7571 421.731 21.4437 423.175 22.8168C424.643 24.1662 425.377 25.8116 425.377 27.7528C425.377 29.6705 424.643 31.3158 423.175 32.6889C421.731 34.0384 419.979 34.7131 417.92 34.7131ZM480.642 56.8722L468.923 58.1506C468.592 56.9669 468.011 55.8542 467.183 54.8125C466.378 53.7708 465.289 52.9304 463.916 52.2912C462.543 51.652 460.862 51.3324 458.873 51.3324C456.198 51.3324 453.949 51.9124 452.126 53.0724C450.327 54.2325 449.439 55.7358 449.463 57.5824C449.439 59.1686 450.019 60.4588 451.203 61.4531C452.41 62.4474 454.399 63.2642 457.169 63.9034L466.473 65.892C471.634 67.0047 475.469 68.7685 477.978 71.1832C480.511 73.598 481.79 76.7585 481.814 80.6648C481.79 84.0975 480.784 87.1278 478.795 89.7557C476.83 92.3598 474.096 94.3958 470.592 95.8636C467.088 97.3314 463.064 98.0653 458.518 98.0653C451.842 98.0653 446.468 96.6686 442.396 93.875C438.324 91.0578 435.897 87.1397 435.116 82.1207L447.652 80.9134C448.22 83.3755 449.427 85.2339 451.274 86.4886C453.12 87.7434 455.523 88.3707 458.483 88.3707C461.537 88.3707 463.987 87.7434 465.833 86.4886C467.704 85.2339 468.639 83.6832 468.639 81.8366C468.639 80.2741 468.035 78.9839 466.828 77.9659C465.644 76.9479 463.797 76.1667 461.288 75.6222L451.984 73.669C446.752 72.58 442.881 70.7453 440.372 68.1648C437.862 65.5606 436.619 62.2699 436.643 58.2926C436.619 54.9309 437.531 52.0189 439.377 49.5568C441.248 47.071 443.84 45.1534 447.154 43.804C450.493 42.4309 454.34 41.7443 458.696 41.7443C465.088 41.7443 470.118 43.1056 473.788 45.8281C477.481 48.5507 479.766 52.232 480.642 56.8722ZM516.561 98.0653C511.093 98.0653 506.37 96.929 502.392 94.6562C498.439 92.3598 495.397 89.1165 493.266 84.9261C491.135 80.7121 490.07 75.7524 490.07 70.0469C490.07 64.4361 491.135 59.5118 493.266 55.2741C495.42 51.0128 498.427 47.6984 502.286 45.331C506.145 42.9399 510.678 41.7443 515.887 41.7443C519.248 41.7443 522.421 42.2888 525.404 43.3778C528.41 44.4432 531.062 46.1004 533.358 48.3494C535.678 50.5985 537.501 53.4631 538.827 56.9432C540.153 60.3996 540.816 64.5189 540.816 69.3011V73.2429H496.107V64.5781H528.493C528.47 62.116 527.937 59.9261 526.895 58.0085C525.854 56.0672 524.398 54.5402 522.527 53.4276C520.681 52.3149 518.526 51.7585 516.064 51.7585C513.436 51.7585 511.128 52.3977 509.14 53.6761C507.151 54.9309 505.6 56.5881 504.488 58.6477C503.399 60.6837 502.842 62.9209 502.819 65.3594V72.9233C502.819 76.0956 503.399 78.8182 504.559 81.0909C505.719 83.34 507.34 85.0682 509.424 86.2756C511.507 87.4593 513.945 88.0511 516.739 88.0511C518.609 88.0511 520.302 87.7907 521.817 87.2699C523.332 86.7254 524.646 85.9323 525.759 84.8906C526.872 83.849 527.712 82.5587 528.28 81.0199L540.283 82.3693C539.525 85.5417 538.081 88.3116 535.951 90.679C533.844 93.0227 531.145 94.8456 527.854 96.1477C524.563 97.4261 520.799 98.0653 516.561 98.0653ZM564.546 24.2727V97H551.691V24.2727H564.546Z" fill="#2EAEC7"/>
<path d="M267.609 20.8636L244.172 107.938H232.914L256.352 20.8636H267.609Z" fill="#97D7E3"/>
<path d="M34.9929 148.652H30.2116C30.0753 147.868 29.8239 147.173 29.4574 146.568C29.0909 145.955 28.6349 145.435 28.0895 145.009C27.544 144.582 26.9219 144.263 26.223 144.05C25.5327 143.828 24.7869 143.717 23.9858 143.717C22.5625 143.717 21.3011 144.075 20.2017 144.791C19.1023 145.499 18.2415 146.538 17.6193 147.911C16.9972 149.274 16.6861 150.94 16.6861 152.909C16.6861 154.912 16.9972 156.599 17.6193 157.972C18.25 159.335 19.1108 160.366 20.2017 161.065C21.3011 161.756 22.5582 162.101 23.973 162.101C24.7571 162.101 25.4901 161.999 26.1719 161.794C26.8622 161.581 27.4801 161.27 28.0256 160.861C28.5795 160.452 29.044 159.949 29.419 159.352C29.8026 158.756 30.0668 158.074 30.2116 157.307L34.9929 157.332C34.8139 158.577 34.4261 159.744 33.8295 160.835C33.2415 161.926 32.4702 162.889 31.5156 163.724C30.5611 164.551 29.4446 165.199 28.1662 165.668C26.8878 166.128 25.4688 166.358 23.9091 166.358C21.608 166.358 19.554 165.825 17.7472 164.76C15.9403 163.695 14.517 162.156 13.4773 160.145C12.4375 158.134 11.9176 155.722 11.9176 152.909C11.9176 150.088 12.4418 147.676 13.4901 145.673C14.5384 143.662 15.9659 142.124 17.7727 141.058C19.5795 139.993 21.625 139.46 23.9091 139.46C25.3665 139.46 26.7216 139.665 27.9744 140.074C29.2273 140.483 30.3438 141.084 31.3239 141.876C32.304 142.661 33.1094 143.624 33.7401 144.766C34.3793 145.899 34.7969 147.195 34.9929 148.652ZM39.1317 166V146.364H43.619V149.636H43.8235C44.1815 148.503 44.7951 147.629 45.6644 147.016C46.5423 146.393 47.5437 146.082 48.6687 146.082C48.9244 146.082 49.2099 146.095 49.5252 146.121C49.8491 146.138 50.1175 146.168 50.3306 146.21V150.467C50.1346 150.399 49.8235 150.339 49.3974 150.288C48.9798 150.229 48.5749 150.199 48.1829 150.199C47.3391 150.199 46.5806 150.382 45.9073 150.749C45.2425 151.107 44.7184 151.605 44.3349 152.244C43.9513 152.884 43.7596 153.621 43.7596 154.456V166H39.1317ZM58.7042 166.396C57.4599 166.396 56.3391 166.175 55.342 165.732C54.3533 165.28 53.5692 164.615 52.9897 163.737C52.4187 162.859 52.1332 161.777 52.1332 160.49C52.1332 159.382 52.3377 158.466 52.7468 157.741C53.1559 157.017 53.7141 156.438 54.4215 156.003C55.1289 155.568 55.9258 155.24 56.8121 155.018C57.707 154.788 58.6317 154.622 59.5863 154.52C60.7369 154.401 61.6701 154.294 62.386 154.2C63.1019 154.098 63.6218 153.945 63.9457 153.74C64.2781 153.527 64.4442 153.199 64.4442 152.756V152.679C64.4442 151.716 64.1587 150.97 63.5877 150.442C63.0167 149.913 62.1942 149.649 61.1204 149.649C59.9869 149.649 59.0877 149.896 58.4229 150.391C57.7667 150.885 57.3235 151.469 57.0934 152.142L52.7724 151.528C53.1133 150.335 53.6758 149.338 54.4599 148.537C55.244 147.727 56.2028 147.122 57.3363 146.722C58.4698 146.312 59.7227 146.108 61.0948 146.108C62.0408 146.108 62.9826 146.219 63.9201 146.44C64.8576 146.662 65.7141 147.028 66.4897 147.54C67.2653 148.043 67.8874 148.729 68.3562 149.598C68.8335 150.467 69.0721 151.554 69.0721 152.858V166H64.6232V163.303H64.4698C64.1886 163.848 63.7923 164.359 63.2809 164.837C62.7781 165.305 62.1431 165.685 61.3761 165.974C60.6175 166.256 59.7269 166.396 58.7042 166.396ZM59.9059 162.996C60.8349 162.996 61.6403 162.812 62.3221 162.446C63.0039 162.071 63.5281 161.577 63.8945 160.963C64.2695 160.349 64.457 159.68 64.457 158.956V156.642C64.3121 156.761 64.065 156.872 63.7156 156.974C63.3746 157.077 62.9911 157.166 62.565 157.243C62.1388 157.32 61.717 157.388 61.2994 157.447C60.8817 157.507 60.5195 157.558 60.2127 157.601C59.5224 157.695 58.9045 157.848 58.359 158.061C57.8136 158.274 57.3832 158.572 57.0678 158.956C56.7525 159.331 56.5948 159.817 56.5948 160.413C56.5948 161.266 56.9059 161.909 57.5281 162.344C58.1502 162.778 58.9428 162.996 59.9059 162.996ZM83.6715 146.364V149.943H72.0636V146.364H83.6715ZM74.9656 166V144.51C74.9656 143.189 75.2383 142.089 75.7837 141.212C76.3377 140.334 77.0792 139.678 78.0082 139.243C78.9371 138.808 79.9684 138.591 81.1019 138.591C81.9031 138.591 82.6147 138.655 83.2369 138.783C83.859 138.911 84.3192 139.026 84.6175 139.128L83.6971 142.707C83.5011 142.648 83.2539 142.588 82.9556 142.528C82.6573 142.46 82.3249 142.426 81.9585 142.426C81.0977 142.426 80.4883 142.635 80.1303 143.053C79.7809 143.462 79.6062 144.05 79.6062 144.817V166H74.9656ZM97.1012 146.364V149.943H85.8129V146.364H97.1012ZM88.5998 141.659H93.2276V160.094C93.2276 160.716 93.3214 161.193 93.5089 161.526C93.7049 161.849 93.9606 162.071 94.2759 162.19C94.5913 162.31 94.9407 162.369 95.3242 162.369C95.614 162.369 95.8782 162.348 96.1168 162.305C96.364 162.263 96.5515 162.224 96.6793 162.19L97.4592 165.808C97.212 165.893 96.8583 165.987 96.3981 166.089C95.9464 166.192 95.3924 166.251 94.7362 166.268C93.5771 166.303 92.533 166.128 91.604 165.744C90.6751 165.352 89.9379 164.747 89.3924 163.929C88.8555 163.111 88.5913 162.088 88.5998 160.861V141.659ZM115.552 166.396C114.308 166.396 113.187 166.175 112.19 165.732C111.201 165.28 110.417 164.615 109.837 163.737C109.266 162.859 108.981 161.777 108.981 160.49C108.981 159.382 109.185 158.466 109.594 157.741C110.004 157.017 110.562 156.438 111.269 156.003C111.977 155.568 112.773 155.24 113.66 155.018C114.555 154.788 115.479 154.622 116.434 154.52C117.585 154.401 118.518 154.294 119.234 154.2C119.95 154.098 120.469 153.945 120.793 153.74C121.126 153.527 121.292 153.199 121.292 152.756V152.679C121.292 151.716 121.006 150.97 120.435 150.442C119.864 149.913 119.042 149.649 117.968 149.649C116.835 149.649 115.935 149.896 115.271 150.391C114.614 150.885 114.171 151.469 113.941 152.142L109.62 151.528C109.961 150.335 110.523 149.338 111.308 148.537C112.092 147.727 113.05 147.122 114.184 146.722C115.317 146.312 116.57 146.108 117.942 146.108C118.888 146.108 119.83 146.219 120.768 146.44C121.705 146.662 122.562 147.028 123.337 147.54C124.113 148.043 124.735 148.729 125.204 149.598C125.681 150.467 125.92 151.554 125.92 152.858V166H121.471V163.303H121.317C121.036 163.848 120.64 164.359 120.129 164.837C119.626 165.305 118.991 165.685 118.224 165.974C117.465 166.256 116.575 166.396 115.552 166.396ZM116.754 162.996C117.683 162.996 118.488 162.812 119.17 162.446C119.852 162.071 120.376 161.577 120.742 160.963C121.117 160.349 121.305 159.68 121.305 158.956V156.642C121.16 156.761 120.913 156.872 120.563 156.974C120.222 157.077 119.839 157.166 119.413 157.243C118.987 157.32 118.565 157.388 118.147 157.447C117.729 157.507 117.367 157.558 117.06 157.601C116.37 157.695 115.752 157.848 115.207 158.061C114.661 158.274 114.231 158.572 113.915 158.956C113.6 159.331 113.442 159.817 113.442 160.413C113.442 161.266 113.754 161.909 114.376 162.344C114.998 162.778 115.79 162.996 116.754 162.996ZM162.118 148.652H157.337C157.2 147.868 156.949 147.173 156.582 146.568C156.216 145.955 155.76 145.435 155.214 145.009C154.669 144.582 154.047 144.263 153.348 144.05C152.658 143.828 151.912 143.717 151.111 143.717C149.688 143.717 148.426 144.075 147.327 144.791C146.227 145.499 145.366 146.538 144.744 147.911C144.122 149.274 143.811 150.94 143.811 152.909C143.811 154.912 144.122 156.599 144.744 157.972C145.375 159.335 146.236 160.366 147.327 161.065C148.426 161.756 149.683 162.101 151.098 162.101C151.882 162.101 152.615 161.999 153.297 161.794C153.987 161.581 154.605 161.27 155.151 160.861C155.705 160.452 156.169 159.949 156.544 159.352C156.928 158.756 157.192 158.074 157.337 157.307L162.118 157.332C161.939 158.577 161.551 159.744 160.955 160.835C160.366 161.926 159.595 162.889 158.641 163.724C157.686 164.551 156.57 165.199 155.291 165.668C154.013 166.128 152.594 166.358 151.034 166.358C148.733 166.358 146.679 165.825 144.872 164.76C143.065 163.695 141.642 162.156 140.602 160.145C139.563 158.134 139.043 155.722 139.043 152.909C139.043 150.088 139.567 147.676 140.615 145.673C141.663 143.662 143.091 142.124 144.898 141.058C146.705 139.993 148.75 139.46 151.034 139.46C152.491 139.46 153.847 139.665 155.099 140.074C156.352 140.483 157.469 141.084 158.449 141.876C159.429 142.661 160.234 143.624 160.865 144.766C161.504 145.899 161.922 147.195 162.118 148.652ZM171.907 166.396C170.663 166.396 169.542 166.175 168.545 165.732C167.556 165.28 166.772 164.615 166.193 163.737C165.622 162.859 165.336 161.777 165.336 160.49C165.336 159.382 165.541 158.466 165.95 157.741C166.359 157.017 166.917 156.438 167.625 156.003C168.332 155.568 169.129 155.24 170.015 155.018C170.91 154.788 171.835 154.622 172.789 154.52C173.94 154.401 174.873 154.294 175.589 154.2C176.305 154.098 176.825 153.945 177.149 153.74C177.481 153.527 177.647 153.199 177.647 152.756V152.679C177.647 151.716 177.362 150.97 176.791 150.442C176.22 149.913 175.397 149.649 174.324 149.649C173.19 149.649 172.291 149.896 171.626 150.391C170.97 150.885 170.527 151.469 170.297 152.142L165.975 151.528C166.316 150.335 166.879 149.338 167.663 148.537C168.447 147.727 169.406 147.122 170.539 146.722C171.673 146.312 172.926 146.108 174.298 146.108C175.244 146.108 176.186 146.219 177.123 146.44C178.061 146.662 178.917 147.028 179.693 147.54C180.468 148.043 181.091 148.729 181.559 149.598C182.037 150.467 182.275 151.554 182.275 152.858V166H177.826V163.303H177.673C177.392 163.848 176.995 164.359 176.484 164.837C175.981 165.305 175.346 165.685 174.579 165.974C173.821 166.256 172.93 166.396 171.907 166.396ZM173.109 162.996C174.038 162.996 174.843 162.812 175.525 162.446C176.207 162.071 176.731 161.577 177.098 160.963C177.473 160.349 177.66 159.68 177.66 158.956V156.642C177.515 156.761 177.268 156.872 176.919 156.974C176.578 157.077 176.194 157.166 175.768 157.243C175.342 157.32 174.92 157.388 174.502 157.447C174.085 157.507 173.723 157.558 173.416 157.601C172.725 157.695 172.108 157.848 171.562 158.061C171.017 158.274 170.586 158.572 170.271 158.956C169.956 159.331 169.798 159.817 169.798 160.413C169.798 161.266 170.109 161.909 170.731 162.344C171.353 162.778 172.146 162.996 173.109 162.996ZM186.929 166V146.364H191.416V149.636H191.62C191.978 148.503 192.592 147.629 193.461 147.016C194.339 146.393 195.341 146.082 196.466 146.082C196.721 146.082 197.007 146.095 197.322 146.121C197.646 146.138 197.914 146.168 198.127 146.21V150.467C197.931 150.399 197.62 150.339 197.194 150.288C196.777 150.229 196.372 150.199 195.98 150.199C195.136 150.199 194.377 150.382 193.704 150.749C193.039 151.107 192.515 151.605 192.132 152.244C191.748 152.884 191.556 153.621 191.556 154.456V166H186.929ZM209.087 166.384C207.118 166.384 205.418 165.974 203.986 165.156C202.563 164.33 201.467 163.162 200.7 161.653C199.933 160.136 199.55 158.351 199.55 156.297C199.55 154.277 199.933 152.504 200.7 150.979C201.476 149.445 202.558 148.251 203.947 147.399C205.337 146.538 206.969 146.108 208.844 146.108C210.054 146.108 211.196 146.304 212.27 146.696C213.352 147.08 214.307 147.676 215.134 148.486C215.969 149.295 216.625 150.327 217.102 151.58C217.58 152.824 217.818 154.307 217.818 156.028V157.447H201.723V154.328H213.382C213.374 153.442 213.182 152.653 212.807 151.963C212.432 151.264 211.908 150.714 211.234 150.314C210.57 149.913 209.794 149.713 208.908 149.713C207.962 149.713 207.131 149.943 206.415 150.403C205.699 150.855 205.141 151.452 204.74 152.193C204.348 152.926 204.148 153.732 204.139 154.609V157.332C204.139 158.474 204.348 159.455 204.766 160.273C205.183 161.082 205.767 161.705 206.517 162.139C207.267 162.565 208.145 162.778 209.151 162.778C209.824 162.778 210.433 162.685 210.979 162.497C211.524 162.301 211.997 162.016 212.398 161.641C212.798 161.266 213.101 160.801 213.305 160.247L217.626 160.733C217.354 161.875 216.834 162.872 216.067 163.724C215.308 164.568 214.337 165.224 213.152 165.693C211.967 166.153 210.612 166.384 209.087 166.384ZM230.426 166.384C228.458 166.384 226.757 165.974 225.326 165.156C223.902 164.33 222.807 163.162 222.04 161.653C221.273 160.136 220.89 158.351 220.89 156.297C220.89 154.277 221.273 152.504 222.04 150.979C222.816 149.445 223.898 148.251 225.287 147.399C226.676 146.538 228.309 146.108 230.184 146.108C231.394 146.108 232.536 146.304 233.61 146.696C234.692 147.08 235.647 147.676 236.473 148.486C237.309 149.295 237.965 150.327 238.442 151.58C238.919 152.824 239.158 154.307 239.158 156.028V157.447H223.063V154.328H234.722C234.713 153.442 234.522 152.653 234.147 151.963C233.772 151.264 233.248 150.714 232.574 150.314C231.909 149.913 231.134 149.713 230.248 149.713C229.301 149.713 228.471 149.943 227.755 150.403C227.039 150.855 226.48 151.452 226.08 152.193C225.688 152.926 225.488 153.732 225.479 154.609V157.332C225.479 158.474 225.688 159.455 226.105 160.273C226.523 161.082 227.107 161.705 227.857 162.139C228.607 162.565 229.485 162.778 230.49 162.778C231.164 162.778 231.773 162.685 232.319 162.497C232.864 162.301 233.337 162.016 233.738 161.641C234.138 161.266 234.441 160.801 234.645 160.247L238.966 160.733C238.694 161.875 238.174 162.872 237.407 163.724C236.648 164.568 235.676 165.224 234.492 165.693C233.307 166.153 231.952 166.384 230.426 166.384ZM243.073 166V146.364H247.56V149.636H247.765C248.123 148.503 248.737 147.629 249.606 147.016C250.484 146.393 251.485 146.082 252.61 146.082C252.866 146.082 253.151 146.095 253.467 146.121C253.79 146.138 254.059 146.168 254.272 146.21V150.467C254.076 150.399 253.765 150.339 253.339 150.288C252.921 150.229 252.516 150.199 252.124 150.199C251.281 150.199 250.522 150.382 249.849 150.749C249.184 151.107 248.66 151.605 248.276 152.244C247.893 152.884 247.701 153.621 247.701 154.456V166H243.073Z" fill="#97D7E3"/>
<path d="M281.811 147.016C281.692 145.899 281.189 145.03 280.303 144.408C279.425 143.786 278.283 143.474 276.876 143.474C275.888 143.474 275.04 143.624 274.332 143.922C273.625 144.22 273.084 144.625 272.709 145.136C272.334 145.648 272.142 146.232 272.134 146.888C272.134 147.433 272.257 147.906 272.504 148.307C272.76 148.707 273.105 149.048 273.54 149.33C273.974 149.602 274.456 149.832 274.984 150.02C275.513 150.207 276.045 150.365 276.582 150.493L279.037 151.107C280.026 151.337 280.976 151.648 281.888 152.04C282.808 152.432 283.631 152.926 284.355 153.523C285.088 154.119 285.668 154.839 286.094 155.683C286.52 156.527 286.733 157.516 286.733 158.649C286.733 160.183 286.341 161.534 285.557 162.702C284.773 163.861 283.639 164.768 282.156 165.425C280.682 166.072 278.896 166.396 276.8 166.396C274.763 166.396 272.994 166.081 271.494 165.45C270.003 164.82 268.835 163.899 267.991 162.689C267.156 161.479 266.705 160.004 266.636 158.266H271.303C271.371 159.178 271.652 159.936 272.146 160.541C272.641 161.146 273.284 161.598 274.077 161.896C274.878 162.195 275.773 162.344 276.761 162.344C277.793 162.344 278.696 162.19 279.472 161.884C280.256 161.568 280.869 161.134 281.312 160.58C281.756 160.017 281.982 159.361 281.99 158.611C281.982 157.929 281.781 157.366 281.389 156.923C280.997 156.472 280.447 156.097 279.74 155.798C279.041 155.491 278.223 155.219 277.286 154.98L274.307 154.213C272.151 153.659 270.446 152.82 269.193 151.695C267.949 150.561 267.327 149.057 267.327 147.182C267.327 145.639 267.744 144.288 268.58 143.129C269.423 141.97 270.57 141.071 272.018 140.432C273.467 139.784 275.108 139.46 276.94 139.46C278.798 139.46 280.426 139.784 281.824 140.432C283.23 141.071 284.334 141.962 285.135 143.104C285.936 144.237 286.349 145.541 286.375 147.016H281.811ZM295.385 154.494V166H290.757V139.818H295.282V149.7H295.512C295.973 148.592 296.684 147.719 297.647 147.08C298.619 146.432 299.855 146.108 301.355 146.108C302.718 146.108 303.907 146.393 304.922 146.964C305.936 147.536 306.72 148.371 307.274 149.47C307.836 150.57 308.118 151.912 308.118 153.497V166H303.49V154.213C303.49 152.892 303.149 151.865 302.467 151.132C301.794 150.391 300.848 150.02 299.629 150.02C298.811 150.02 298.078 150.199 297.43 150.557C296.791 150.906 296.288 151.413 295.922 152.078C295.564 152.743 295.385 153.548 295.385 154.494ZM318.485 166.396C317.241 166.396 316.12 166.175 315.123 165.732C314.135 165.28 313.35 164.615 312.771 163.737C312.2 162.859 311.914 161.777 311.914 160.49C311.914 159.382 312.119 158.466 312.528 157.741C312.937 157.017 313.495 156.438 314.203 156.003C314.91 155.568 315.707 155.24 316.593 155.018C317.488 154.788 318.413 154.622 319.368 154.52C320.518 154.401 321.451 154.294 322.167 154.2C322.883 154.098 323.403 153.945 323.727 153.74C324.059 153.527 324.225 153.199 324.225 152.756V152.679C324.225 151.716 323.94 150.97 323.369 150.442C322.798 149.913 321.975 149.649 320.902 149.649C319.768 149.649 318.869 149.896 318.204 150.391C317.548 150.885 317.105 151.469 316.875 152.142L312.554 151.528C312.895 150.335 313.457 149.338 314.241 148.537C315.025 147.727 315.984 147.122 317.118 146.722C318.251 146.312 319.504 146.108 320.876 146.108C321.822 146.108 322.764 146.219 323.701 146.44C324.639 146.662 325.495 147.028 326.271 147.54C327.047 148.043 327.669 148.729 328.137 149.598C328.615 150.467 328.853 151.554 328.853 152.858V166H324.404V163.303H324.251C323.97 163.848 323.574 164.359 323.062 164.837C322.559 165.305 321.924 165.685 321.157 165.974C320.399 166.256 319.508 166.396 318.485 166.396ZM319.687 162.996C320.616 162.996 321.422 162.812 322.103 162.446C322.785 162.071 323.309 161.577 323.676 160.963C324.051 160.349 324.238 159.68 324.238 158.956V156.642C324.093 156.761 323.846 156.872 323.497 156.974C323.156 157.077 322.772 157.166 322.346 157.243C321.92 157.32 321.498 157.388 321.081 157.447C320.663 157.507 320.301 157.558 319.994 157.601C319.304 157.695 318.686 157.848 318.14 158.061C317.595 158.274 317.164 158.572 316.849 158.956C316.534 159.331 316.376 159.817 316.376 160.413C316.376 161.266 316.687 161.909 317.309 162.344C317.931 162.778 318.724 162.996 319.687 162.996ZM333.507 173.364V146.364H338.058V149.611H338.326C338.565 149.134 338.902 148.626 339.336 148.089C339.771 147.544 340.359 147.08 341.1 146.696C341.842 146.304 342.788 146.108 343.939 146.108C345.456 146.108 346.824 146.496 348.042 147.271C349.27 148.038 350.241 149.176 350.957 150.685C351.681 152.185 352.044 154.026 352.044 156.207C352.044 158.364 351.69 160.196 350.983 161.705C350.275 163.213 349.312 164.364 348.093 165.156C346.875 165.949 345.494 166.345 343.951 166.345C342.826 166.345 341.893 166.158 341.152 165.783C340.41 165.408 339.814 164.956 339.362 164.428C338.919 163.891 338.574 163.384 338.326 162.906H338.135V173.364H333.507ZM338.045 156.182C338.045 157.452 338.224 158.564 338.582 159.518C338.949 160.473 339.473 161.219 340.154 161.756C340.845 162.284 341.68 162.548 342.66 162.548C343.683 162.548 344.539 162.276 345.23 161.73C345.92 161.176 346.44 160.422 346.789 159.467C347.147 158.504 347.326 157.409 347.326 156.182C347.326 154.963 347.152 153.881 346.802 152.935C346.453 151.989 345.933 151.247 345.243 150.71C344.552 150.173 343.691 149.905 342.66 149.905C341.672 149.905 340.832 150.165 340.142 150.685C339.451 151.205 338.927 151.933 338.569 152.871C338.22 153.808 338.045 154.912 338.045 156.182ZM364.7 166.384C362.731 166.384 361.031 165.974 359.599 165.156C358.176 164.33 357.081 163.162 356.314 161.653C355.547 160.136 355.163 158.351 355.163 156.297C355.163 154.277 355.547 152.504 356.314 150.979C357.089 149.445 358.172 148.251 359.561 147.399C360.95 146.538 362.582 146.108 364.457 146.108C365.667 146.108 366.809 146.304 367.883 146.696C368.966 147.08 369.92 147.676 370.747 148.486C371.582 149.295 372.238 150.327 372.716 151.58C373.193 152.824 373.431 154.307 373.431 156.028V157.447H357.336V154.328H368.995C368.987 153.442 368.795 152.653 368.42 151.963C368.045 151.264 367.521 150.714 366.848 150.314C366.183 149.913 365.407 149.713 364.521 149.713C363.575 149.713 362.744 149.943 362.028 150.403C361.312 150.855 360.754 151.452 360.353 152.193C359.961 152.926 359.761 153.732 359.752 154.609V157.332C359.752 158.474 359.961 159.455 360.379 160.273C360.797 161.082 361.38 161.705 362.13 162.139C362.88 162.565 363.758 162.778 364.764 162.778C365.437 162.778 366.047 162.685 366.592 162.497C367.137 162.301 367.61 162.016 368.011 161.641C368.412 161.266 368.714 160.801 368.919 160.247L373.24 160.733C372.967 161.875 372.447 162.872 371.68 163.724C370.922 164.568 369.95 165.224 368.765 165.693C367.581 166.153 366.225 166.384 364.7 166.384ZM389.153 173.364C388.522 173.364 387.938 173.313 387.401 173.21C386.873 173.116 386.451 173.006 386.136 172.878L387.21 169.273C387.883 169.469 388.484 169.563 389.012 169.554C389.54 169.545 390.005 169.379 390.406 169.055C390.815 168.74 391.16 168.212 391.441 167.47L391.837 166.409L384.717 146.364H389.626L394.151 161.193H394.356L398.894 146.364H403.816L395.954 168.378C395.587 169.418 395.102 170.308 394.496 171.05C393.891 171.8 393.15 172.371 392.272 172.763C391.403 173.163 390.363 173.364 389.153 173.364ZM414.916 166.384C412.998 166.384 411.336 165.962 409.93 165.118C408.524 164.274 407.433 163.094 406.657 161.577C405.89 160.06 405.507 158.287 405.507 156.259C405.507 154.23 405.89 152.453 406.657 150.928C407.433 149.402 408.524 148.217 409.93 147.374C411.336 146.53 412.998 146.108 414.916 146.108C416.833 146.108 418.495 146.53 419.902 147.374C421.308 148.217 422.395 149.402 423.162 150.928C423.937 152.453 424.325 154.23 424.325 156.259C424.325 158.287 423.937 160.06 423.162 161.577C422.395 163.094 421.308 164.274 419.902 165.118C418.495 165.962 416.833 166.384 414.916 166.384ZM414.941 162.676C415.981 162.676 416.85 162.391 417.549 161.82C418.248 161.24 418.768 160.464 419.109 159.493C419.458 158.521 419.633 157.439 419.633 156.246C419.633 155.044 419.458 153.957 419.109 152.986C418.768 152.006 418.248 151.226 417.549 150.646C416.85 150.067 415.981 149.777 414.941 149.777C413.876 149.777 412.99 150.067 412.282 150.646C411.583 151.226 411.059 152.006 410.71 152.986C410.369 153.957 410.199 155.044 410.199 156.246C410.199 157.439 410.369 158.521 410.71 159.493C411.059 160.464 411.583 161.24 412.282 161.82C412.99 162.391 413.876 162.676 414.941 162.676ZM440.768 157.741V146.364H445.396V166H440.909V162.51H440.705C440.261 163.609 439.533 164.509 438.518 165.207C437.513 165.906 436.273 166.256 434.798 166.256C433.511 166.256 432.374 165.97 431.385 165.399C430.405 164.82 429.638 163.98 429.084 162.881C428.53 161.773 428.253 160.435 428.253 158.866V146.364H432.881V158.151C432.881 159.395 433.222 160.384 433.903 161.116C434.585 161.849 435.48 162.216 436.588 162.216C437.27 162.216 437.93 162.05 438.57 161.717C439.209 161.385 439.733 160.891 440.142 160.234C440.56 159.57 440.768 158.739 440.768 157.741ZM450.155 166V146.364H454.642V149.636H454.847C455.205 148.503 455.819 147.629 456.688 147.016C457.566 146.393 458.567 146.082 459.692 146.082C459.948 146.082 460.233 146.095 460.549 146.121C460.873 146.138 461.141 146.168 461.354 146.21V150.467C461.158 150.399 460.847 150.339 460.421 150.288C460.003 150.229 459.598 150.199 459.206 150.199C458.363 150.199 457.604 150.382 456.931 150.749C456.266 151.107 455.742 151.605 455.358 152.244C454.975 152.884 454.783 153.621 454.783 154.456V166H450.155ZM473.563 166V139.818H490.336V143.794H478.306V150.902H489.185V154.878H478.306V166H473.563ZM505.737 157.741V146.364H510.365V166H505.878V162.51H505.673C505.23 163.609 504.501 164.509 503.487 165.207C502.482 165.906 501.241 166.256 499.767 166.256C498.48 166.256 497.342 165.97 496.354 165.399C495.374 164.82 494.607 163.98 494.053 162.881C493.499 161.773 493.222 160.435 493.222 158.866V146.364H497.849V158.151C497.849 159.395 498.19 160.384 498.872 161.116C499.554 161.849 500.449 162.216 501.557 162.216C502.239 162.216 502.899 162.05 503.538 161.717C504.178 161.385 504.702 160.891 505.111 160.234C505.528 159.57 505.737 158.739 505.737 157.741ZM524.929 146.364V149.943H513.641V146.364H524.929ZM516.428 141.659H521.056V160.094C521.056 160.716 521.15 161.193 521.337 161.526C521.533 161.849 521.789 162.071 522.104 162.19C522.419 162.31 522.769 162.369 523.152 162.369C523.442 162.369 523.706 162.348 523.945 162.305C524.192 162.263 524.38 162.224 524.507 162.19L525.287 165.808C525.04 165.893 524.686 165.987 524.226 166.089C523.775 166.192 523.221 166.251 522.564 166.268C521.405 166.303 520.361 166.128 519.432 165.744C518.503 165.352 517.766 164.747 517.221 163.929C516.684 163.111 516.419 162.088 516.428 160.861V141.659ZM541.315 157.741V146.364H545.943V166H541.456V162.51H541.251C540.808 163.609 540.08 164.509 539.065 165.207C538.06 165.906 536.82 166.256 535.345 166.256C534.058 166.256 532.92 165.97 531.932 165.399C530.952 164.82 530.185 163.98 529.631 162.881C529.077 161.773 528.8 160.435 528.8 158.866V146.364H533.428V158.151C533.428 159.395 533.768 160.384 534.45 161.116C535.132 161.849 536.027 162.216 537.135 162.216C537.817 162.216 538.477 162.05 539.116 161.717C539.756 161.385 540.28 160.891 540.689 160.234C541.107 159.57 541.315 158.739 541.315 157.741ZM550.702 166V146.364H555.189V149.636H555.394C555.752 148.503 556.365 147.629 557.235 147.016C558.113 146.393 559.114 146.082 560.239 146.082C560.495 146.082 560.78 146.095 561.096 146.121C561.419 146.138 561.688 146.168 561.901 146.21V150.467C561.705 150.399 561.394 150.339 560.968 150.288C560.55 150.229 560.145 150.199 559.753 150.199C558.909 150.199 558.151 150.382 557.478 150.749C556.813 151.107 556.289 151.605 555.905 152.244C555.522 152.884 555.33 153.621 555.33 154.456V166H550.702ZM572.86 166.384C570.891 166.384 569.191 165.974 567.759 165.156C566.336 164.33 565.241 163.162 564.474 161.653C563.707 160.136 563.323 158.351 563.323 156.297C563.323 154.277 563.707 152.504 564.474 150.979C565.249 149.445 566.332 148.251 567.721 147.399C569.11 146.538 570.742 146.108 572.617 146.108C573.827 146.108 574.969 146.304 576.043 146.696C577.126 147.08 578.08 147.676 578.907 148.486C579.742 149.295 580.398 150.327 580.876 151.58C581.353 152.824 581.592 154.307 581.592 156.028V157.447H565.496V154.328H577.156C577.147 153.442 576.955 152.653 576.58 151.963C576.205 151.264 575.681 150.714 575.008 150.314C574.343 149.913 573.567 149.713 572.681 149.713C571.735 149.713 570.904 149.943 570.188 150.403C569.472 150.855 568.914 151.452 568.513 152.193C568.121 152.926 567.921 153.732 567.913 154.609V157.332C567.913 158.474 568.121 159.455 568.539 160.273C568.957 161.082 569.54 161.705 570.29 162.139C571.04 162.565 571.918 162.778 572.924 162.778C573.597 162.778 574.207 162.685 574.752 162.497C575.298 162.301 575.771 162.016 576.171 161.641C576.572 161.266 576.874 160.801 577.079 160.247L581.4 160.733C581.127 161.875 580.607 162.872 579.84 163.724C579.082 164.568 578.11 165.224 576.925 165.693C575.741 166.153 574.386 166.384 572.86 166.384Z" fill="#2EAEC7"/>
<defs>
<clipPath id="clip0_31_351">
<rect width="85" height="107" fill="white" transform="translate(22 7)"/>
</clipPath>
</defs>
</svg>
