<?xml version="1.0" encoding="UTF-8"?><svg id="a" xmlns="http://www.w3.org/2000/svg" viewBox="0 0 470 285"><defs><style>.b{fill:#fff;}</style></defs><path class="b" d="M454.67,285H15.33c-8.43,0-15.33-7-15.33-15.55V15.55C0,7,6.9,0,15.33,0H454.67c8.43,0,15.33,7,15.33,15.55v253.91c0,8.55-6.9,15.55-15.33,15.55Z"/><path d="M149.2,105.9c-3.4-3-8.6-4.3-15.8-4.3h-10.8l.4,45.8,.7,45.9,10.5-.4c7.7,0,11.8-1.3,15.5-4.9,4.5-4.5,4.9-6.8,4.9-41.2,0-35.9-.4-36.8-5.4-40.9ZM10,25.1v239.98c0,5.37,4.35,9.72,9.72,9.72H445c8.28,0,15-6.72,15-15V25.1c0-8.28-6.72-15-15-15H25c-8.28,0-15,6.72-15,15ZM170.5,204.3c-8.2,10.8-19.9,14.4-47.4,14.4h-24.8V77.4h26.2c31.3,0,40.5,3.4,48.8,16.9,5,8,5.4,11.3,6,48.2,.9,41.7-.3,51.1-8.8,61.8Zm95.4-102.6h-46.3v33.3h28.5v23.9l-13.5,.8-14.1,.5v33.2l22.9,.6,22.5,.7v24h-29.9c-28.7,0-30-.2-35.1-5.6l-5.6-5.3v-59.2c0-56.6,.2-59.6,4.7-65.2,4.3-5.9,4.7-5.9,35.3-5.9h30.7v24.4l-.1-.2Zm87.7,102.2c-3.2,8.1-11.9,14.8-18.7,14.8-3.4,0-8.4-2.8-12.5-7.3-6-6-8.4-11.8-15.4-39l-16.9-63.6-8.5-31.3h14.3c7.5,0,14.1,.4,14.1,1,0,1.1,21.8,85.1,23.7,90.6,.7,2.8,5.9-13.2,13.6-43.1l12.4-47.2,13.9-.8c7.5-.4,13.7,0,13.7,.8,0,2.5-31.3,119.6-33.7,125.1h0Z"/></svg>