<?xml version="1.0" encoding="UTF-8"?><svg id="a" xmlns="http://www.w3.org/2000/svg" viewBox="0 0 460 275"><defs><style>.b{fill:#fff;}</style></defs><rect class="b" width="460" height="275" rx="6" ry="6"/><path d="M144.2,100.95c-3.4-3-8.6-4.3-15.8-4.3h-10.8l.4,45.8,.7,45.9,10.5-.4c7.7,0,11.8-1.3,15.5-4.9,4.5-4.5,4.9-6.8,4.9-41.2,0-35.9-.4-36.8-5.4-40.9ZM5,5.15V269.85H455V5.15H5ZM165.5,199.35c-8.2,10.8-19.9,14.4-47.4,14.4h-24.8V72.45h26.2c31.3,0,40.5,3.4,48.8,16.9,5,8,5.4,11.3,6,48.2,.9,41.7-.3,51.1-8.8,61.8Zm95.4-102.6h-46.3v33.3h28.5v23.9l-13.5,.8-14.1,.5v33.2l22.9,.6,22.5,.7v24h-29.9c-28.7,0-30-.2-35.1-5.6l-5.6-5.3v-59.2c0-56.6,.2-59.6,4.7-65.2,4.3-5.9,4.7-5.9,35.3-5.9h30.7v24.4l-.1-.2Zm87.7,102.2c-3.2,8.1-11.9,14.8-18.7,14.8-3.4,0-8.4-2.8-12.5-7.3-6-6-8.4-11.8-15.4-39l-16.9-63.6-8.5-31.3h14.3c7.5,0,14.1,.4,14.1,1,0,1.1,21.8,85.1,23.7,90.6,.7,2.8,5.9-13.2,13.6-43.1l12.4-47.2,13.9-.8c7.5-.4,13.7,0,13.7,.8,0,2.5-31.3,119.6-33.8,125.2h.1v-.1Z"/></svg>