<svg width="1607" height="427" viewBox="0 0 1607 427" fill="none" xmlns="http://www.w3.org/2000/svg">
<path fill-rule="evenodd" clip-rule="evenodd" d="M411.159 293.759C380.966 280.073 346.396 264.402 346.396 197.9C346.396 140.232 256.955 141.848 256.955 197.9C256.955 264.743 224.531 282.505 197.819 297.137C179.11 307.385 163.204 316.099 163.204 339.065C163.204 387.213 222.346 363.065 272.047 342.772C277.965 340.356 283.749 337.994 289.283 335.816C300.598 331.362 309.247 330.967 323.766 335.816C390.964 358.259 453.743 376.556 455.233 348.747C457.064 314.567 435.538 304.81 411.159 293.759ZM212.774 311.57C226.064 304.566 253.507 285.276 256.955 264.156C254.082 282.295 241.222 317.173 212.774 311.57ZM348.012 264.156C356.094 279.96 384.112 307.798 399.198 307.798C388.422 310.133 356.633 307.69 348.012 264.156Z" fill="url(#paint0_linear_2057_34)"/>
<path d="M343.163 100.361C343.163 122.679 325.071 140.771 302.753 140.771C280.435 140.771 262.343 122.679 262.343 100.361C262.343 78.0435 280.435 59.9512 302.753 59.9512C325.071 59.9512 343.163 78.0435 343.163 100.361Z" fill="url(#paint1_linear_2057_34)"/>
<path d="M502.127 178.152C502.127 175.32 503.25 172.586 505.496 169.949C507.84 167.215 510.672 165.848 513.992 165.848L535.672 165.701V163.797C535.965 147.293 539.676 134.354 546.805 124.979C553.934 115.604 565.506 111.062 581.521 111.355L597.635 111.648C601.639 111.648 605.057 113.113 607.889 116.043C610.721 118.875 612.137 122.293 612.137 126.297C612.137 130.301 610.721 133.67 607.889 136.404C605.057 139.139 601.59 140.506 597.488 140.506L581.082 138.162C576.004 138.162 572.293 138.943 569.949 140.506C567.703 141.971 566.238 144.607 565.555 148.416C564.969 152.225 564.725 157.645 564.822 164.676L564.969 165.994L594.559 166.141C598.465 166.141 601.736 167.459 604.373 170.096C607.107 172.732 608.475 175.906 608.475 179.617C608.475 182.742 607.205 185.77 604.666 188.699C602.127 191.531 599.246 192.947 596.023 192.947L564.969 193.24L565.262 311.307V311.453C565.262 315.359 563.797 318.68 560.867 321.414C558.035 324.051 554.617 325.369 550.613 325.369C546.609 325.369 543.143 324.051 540.213 321.414C537.381 318.68 535.965 315.359 535.965 311.453V311.307L535.672 192.947L516.043 192.801C512.137 192.801 508.816 191.434 506.082 188.699C503.445 185.965 502.127 182.449 502.127 178.152ZM696.219 161.6C707.449 161.6 717.898 163.748 727.566 168.045C737.332 172.342 745.877 178.299 753.201 185.916C760.525 193.533 766.238 202.273 770.34 212.137C774.539 222 776.639 232.498 776.639 243.631C776.639 254.568 774.539 264.969 770.34 274.832C766.141 284.598 760.33 293.24 752.908 300.76C745.584 308.182 737.039 314.041 727.273 318.338C717.605 322.635 707.254 324.783 696.219 324.783C685.281 324.783 674.93 322.684 665.164 318.484C655.496 314.285 646.951 308.475 639.529 301.053C632.205 293.631 626.443 285.037 622.244 275.271C618.045 265.408 615.945 254.861 615.945 243.631C615.945 232.498 618.045 222 622.244 212.137C626.443 202.273 632.205 193.582 639.529 186.062C646.951 178.445 655.496 172.488 665.164 168.191C674.832 163.797 685.184 161.6 696.219 161.6ZM645.535 243.924C645.535 253.396 647.83 262.039 652.42 269.852C657.107 277.566 663.309 283.719 671.023 288.309C678.738 292.898 687.186 295.193 696.365 295.193C705.74 295.193 714.236 292.85 721.854 288.162C729.568 283.377 735.672 277.078 740.164 269.266C744.754 261.453 747.049 252.908 747.049 243.631C747.049 234.158 744.803 225.467 740.311 217.557C735.818 209.549 729.715 203.152 722 198.367C714.383 193.582 705.789 191.189 696.219 191.189C686.551 191.189 677.908 193.631 670.291 198.514C662.674 203.299 656.619 209.695 652.127 217.703C647.732 225.613 645.535 234.354 645.535 243.924ZM792.605 243.045C792.605 232.205 794.51 221.902 798.318 212.137C802.127 202.371 807.498 193.68 814.432 186.062C821.365 178.445 829.422 172.439 838.602 168.045C847.879 163.65 857.938 161.453 868.777 161.453C879.52 161.453 889.236 163.553 897.928 167.752C906.717 171.854 914.236 177.322 920.486 184.158C926.834 190.896 931.57 198.27 934.695 206.277C935.379 207.938 935.721 209.793 935.721 211.844C935.721 215.848 934.256 219.314 931.326 222.244C928.494 225.076 925.076 226.492 921.072 226.492C918.338 226.492 915.652 225.564 913.016 223.709C910.379 221.854 908.523 219.607 907.449 216.971C904.715 209.939 899.93 203.836 893.094 198.66C886.355 193.387 878.25 190.75 868.777 190.75C859.891 190.75 851.883 193.24 844.754 198.221C837.723 203.104 832.156 209.5 828.055 217.41C823.953 225.32 821.902 233.865 821.902 243.045C821.902 252.322 824.002 261.062 828.201 269.266C832.4 277.371 838.162 283.963 845.486 289.041C852.811 294.021 861.062 296.512 870.242 296.512C879.227 296.512 886.99 294.266 893.533 289.773C900.076 285.184 905.008 279.861 908.328 273.807C909.5 271.658 911.355 269.852 913.895 268.387C916.434 266.824 918.924 266.043 921.365 266.043C925.369 266.043 928.787 267.508 931.619 270.438C934.549 273.27 936.014 276.688 936.014 280.691C936.014 283.133 935.379 285.525 934.109 287.869C928.543 298.123 920.242 307.01 909.207 314.529C898.172 322.049 885.184 325.809 870.242 325.809C859.109 325.809 848.807 323.611 839.334 319.217C829.959 314.725 821.756 308.621 814.725 300.906C807.791 293.191 802.371 284.402 798.465 274.539C794.559 264.578 792.605 254.08 792.605 243.045ZM1060.67 302.225C1055.4 307.303 1049.1 312.43 1041.78 317.605C1034.45 322.684 1025.86 325.223 1015.99 325.223C1003.2 325.223 992.557 321.854 984.061 315.115C975.564 308.279 969.314 300.369 965.311 291.385C962.186 284.256 960.281 277.225 959.598 270.291C959.012 263.26 958.719 256.668 958.719 250.516V176.541C958.719 172.537 960.135 169.119 962.967 166.287C965.896 163.357 969.363 161.893 973.367 161.893C977.371 161.893 980.789 163.357 983.621 166.287C986.551 169.119 988.016 172.537 988.016 176.541V250.516C988.016 256.18 988.26 261.502 988.748 266.482C989.334 271.365 990.457 275.662 992.117 279.373C994.07 283.67 997 287.527 1000.91 290.945C1004.81 294.266 1009.74 295.926 1015.7 295.926C1030.15 295.926 1041.24 290.408 1048.95 279.373C1056.77 268.338 1060.62 253.445 1060.53 234.695L1060.38 176.248C1060.38 172.244 1061.79 168.826 1064.63 165.994C1067.56 163.064 1071.02 161.6 1075.03 161.6C1079.13 161.6 1082.6 163.064 1085.43 165.994C1088.26 168.826 1089.68 172.293 1089.68 176.395L1089.97 311.014C1089.97 315.018 1088.85 318.484 1086.6 321.414C1084.45 324.246 1081.38 325.662 1077.37 325.662C1073.37 325.662 1070.29 324.246 1068.14 321.414C1065.99 318.484 1064.33 315.018 1063.16 311.014L1060.67 302.225ZM1111.06 243.191C1111.06 232.156 1113.11 221.414 1117.21 210.965C1121.32 200.516 1127.37 191.287 1135.38 183.279C1142.51 176.346 1150.71 170.975 1159.99 167.166C1169.27 163.357 1178.88 161.453 1188.85 161.453C1199 161.453 1208.04 163.602 1215.95 167.898C1223.86 172.195 1230.94 178.006 1237.19 185.33V123.66C1237.19 119.656 1238.6 116.238 1241.43 113.406C1244.36 110.477 1247.83 109.012 1251.83 109.012C1255.84 109.012 1259.26 110.477 1262.09 113.406C1265.02 116.238 1266.48 119.656 1266.48 123.66V310.721C1266.48 314.725 1265.02 318.191 1262.09 321.121C1259.26 323.953 1255.84 325.369 1251.83 325.369C1247.83 325.369 1244.8 323.953 1242.75 321.121C1240.8 318.191 1239.53 314.725 1238.94 310.721L1237.19 298.855C1231.62 306.863 1224.25 313.162 1215.07 317.752C1205.98 322.342 1196.9 324.637 1187.82 324.637C1176.79 324.637 1166.58 322.439 1157.21 318.045C1147.93 313.65 1139.82 307.693 1132.89 300.174C1125.96 292.557 1120.58 283.865 1116.78 274.1C1112.97 264.334 1111.06 254.031 1111.06 243.191ZM1187.53 295.34C1193.88 295.34 1200.17 293.924 1206.42 291.092C1212.67 288.26 1218 284.451 1222.39 279.666C1226.79 274.783 1230.15 269.07 1232.5 262.527C1234.94 255.984 1236.16 249.295 1236.16 242.459C1236.16 233.084 1234.11 224.441 1230.01 216.531C1225.91 208.621 1220.24 202.273 1213.02 197.488C1205.89 192.703 1197.63 190.311 1188.26 190.311C1179.08 190.311 1170.83 192.85 1163.5 197.928C1156.28 202.908 1150.56 209.451 1146.37 217.557C1142.26 225.564 1140.21 234.109 1140.21 243.191C1140.21 252.273 1142.26 260.818 1146.37 268.826C1150.47 276.736 1156.08 283.133 1163.21 288.016C1170.44 292.898 1178.54 295.34 1187.53 295.34ZM1368.88 161.6C1380.11 161.6 1390.55 163.748 1400.22 168.045C1409.99 172.342 1418.53 178.299 1425.86 185.916C1433.18 193.533 1438.89 202.273 1443 212.137C1447.2 222 1449.29 232.498 1449.29 243.631C1449.29 254.568 1447.2 264.969 1443 274.832C1438.8 284.598 1432.99 293.24 1425.56 300.76C1418.24 308.182 1409.7 314.041 1399.93 318.338C1390.26 322.635 1379.91 324.783 1368.88 324.783C1357.94 324.783 1347.59 322.684 1337.82 318.484C1328.15 314.285 1319.61 308.475 1312.19 301.053C1304.86 293.631 1299.1 285.037 1294.9 275.271C1290.7 265.408 1288.6 254.861 1288.6 243.631C1288.6 232.498 1290.7 222 1294.9 212.137C1299.1 202.273 1304.86 193.582 1312.19 186.062C1319.61 178.445 1328.15 172.488 1337.82 168.191C1347.49 163.797 1357.84 161.6 1368.88 161.6ZM1318.19 243.924C1318.19 253.396 1320.49 262.039 1325.08 269.852C1329.76 277.566 1335.96 283.719 1343.68 288.309C1351.39 292.898 1359.84 295.193 1369.02 295.193C1378.4 295.193 1386.89 292.85 1394.51 288.162C1402.22 283.377 1408.33 277.078 1412.82 269.266C1417.41 261.453 1419.71 252.908 1419.71 243.631C1419.71 234.158 1417.46 225.467 1412.97 217.557C1408.47 209.549 1402.37 203.152 1394.66 198.367C1387.04 193.582 1378.45 191.189 1368.88 191.189C1359.21 191.189 1350.56 193.631 1342.95 198.514C1335.33 203.299 1329.28 209.695 1324.78 217.703C1320.39 225.613 1318.19 234.354 1318.19 243.924Z" fill="url(#paint2_linear_2057_34)"/>
<defs>
<linearGradient id="paint0_linear_2057_34" x1="309.273" y1="59.9508" x2="309.273" y2="367.128" gradientUnits="userSpaceOnUse">
<stop stop-color="#FC32C3"/>
<stop offset="0.2" stop-color="#FF9A3D"/>
<stop offset="1" stop-color="#BE34FF"/>
</linearGradient>
<linearGradient id="paint1_linear_2057_34" x1="309.273" y1="59.9512" x2="309.273" y2="367.128" gradientUnits="userSpaceOnUse">
<stop stop-color="#FC32C3"/>
<stop offset="0.2" stop-color="#FF9A3D"/>
<stop offset="1" stop-color="#BE34FF"/>
</linearGradient>
<linearGradient id="paint2_linear_2057_34" x1="497" y1="214.219" x2="1483" y2="214.219" gradientUnits="userSpaceOnUse">
<stop stop-color="#FC32C3"/>
<stop offset="1" stop-color="#FF9A3D"/>
</linearGradient>
</defs>
</svg>
