<svg width="338" height="64" viewBox="0 0 338 64" fill="none" xmlns="http://www.w3.org/2000/svg">
<g clip-path="url(#clip0_26_19)">
<path d="M5.05835 30.7422V12.7846H9.89117V30.7422C9.89117 43.7673 25.3998 44.1927 25.3998 30.7422H20.4757C20.0205 30.7422 19.7969 30.1753 20.1248 29.8523L30.0607 20.0637V30.7422C30.0607 50.7318 5.05835 50.9445 5.05835 30.7422Z" fill="#E7F1FF"/>
<path d="M5.05829 12.7846V11.8608H4.15503V12.7846H5.05829ZM30.0606 20.0637H30.9639C30.9639 19.6932 30.7475 19.3585 30.414 19.2136C30.0807 19.0686 29.6948 19.1414 29.434 19.3984L30.0606 20.0637ZM25.3998 30.7421H26.303V29.8184H25.3998V30.7421ZM9.89111 12.7846H10.7944V11.8608H9.89111V12.7846ZM4.15503 12.7846V30.7421H5.96156V12.7846H4.15503ZM4.15503 30.7421C4.15503 35.9937 5.7841 40.0088 8.31185 42.7142C10.8344 45.414 14.2007 46.7521 17.5632 46.7379C20.9253 46.7235 24.2883 45.3574 26.8079 42.6535C29.3332 39.9436 30.9639 35.9433 30.9639 30.7421H29.1574C29.1574 35.5358 27.6627 39.0582 25.5002 41.3789C23.3318 43.7057 20.4442 44.8781 17.5557 44.8904C14.6676 44.9027 11.7833 43.7554 9.61797 41.4379C7.45779 39.1259 5.96156 35.5917 5.96156 30.7421H4.15503ZM30.9639 30.7421V20.0637H29.1574V30.7421H30.9639ZM29.434 19.3984L19.498 29.187L20.7514 30.5176L30.6873 20.7289L29.434 19.3984ZM20.4756 31.6659H25.3998V29.8184H20.4756V31.6659ZM24.4965 30.7421C24.4965 33.9217 23.5827 36.1821 22.3059 37.6294C21.0283 39.0775 19.3397 39.7699 17.6575 39.7468C14.3548 39.7015 10.7944 36.8356 10.7944 30.7421H8.98785C8.98785 37.6738 13.1818 41.5331 17.6333 41.5942C19.8283 41.6243 22.0169 40.7151 23.6472 38.867C25.2782 37.0182 26.303 34.2878 26.303 30.7421H24.4965ZM10.7944 30.7421V12.7846H8.98785V30.7421H10.7944ZM5.05829 13.7083H9.89111V11.8608H5.05829V13.7083ZM19.498 29.187C18.5848 30.0867 19.2075 31.6659 20.4756 31.6659V29.8184C20.8333 29.8184 21.009 30.2638 20.7514 30.5176L19.498 29.187Z" fill="black"/>
<path fill-rule="evenodd" clip-rule="evenodd" d="M11.9553 43.3409C9.11172 40.6664 7.62343 36.2543 7.62343 33.6242L7.40665 14.4843H5.96143V30.7421C5.96143 35.5917 7.45766 39.1258 9.61784 41.4379C10.328 42.1979 11.1156 42.8322 11.9553 43.3409Z" fill="#D5DAE1"/>
<path fill-rule="evenodd" clip-rule="evenodd" d="M22.994 29.8184C22.9536 29.6783 22.9865 29.5151 23.1596 29.3381C23.5415 28.9475 26.9247 25.7171 29.1572 23.5896V22.2362L21.4609 29.8184H22.994Z" fill="#D5DAE1"/>
<path fill-rule="evenodd" clip-rule="evenodd" d="M18.3645 41.5694C20.308 41.4105 22.1981 40.5096 23.6471 38.867C25.2782 37.0182 26.303 34.2878 26.303 30.7421V29.8189H27.0256V32.2201C27.0256 40.0632 21.2371 41.8389 18.3645 41.5694Z" fill="#D5DAE1"/>
<path fill-rule="evenodd" clip-rule="evenodd" d="M7.40676 15.1494C11.4974 15.1494 14.8135 11.7581 14.8135 7.57469C14.8135 3.3913 11.4974 0 7.40676 0C3.31612 0 0 3.3913 0 7.57469C0 11.7581 3.31612 15.1494 7.40676 15.1494ZM7.44289 10.4198C8.99932 10.4198 10.2611 9.12945 10.2611 7.53774C10.2611 5.94601 8.99932 4.65566 7.44289 4.65566C5.88645 4.65566 4.62471 5.94601 4.62471 7.53774C4.62471 9.12945 5.88645 10.4198 7.44289 10.4198Z" fill="#E7F1FF"/>
<mask id="mask0_26_19" style="mask-type:luminance" maskUnits="userSpaceOnUse" x="0" y="0" width="15" height="16">
<path fill-rule="evenodd" clip-rule="evenodd" d="M7.40676 15.1494C11.4974 15.1494 14.8135 11.7581 14.8135 7.57469C14.8135 3.3913 11.4974 0 7.40676 0C3.31612 0 0 3.3913 0 7.57469C0 11.7581 3.31612 15.1494 7.40676 15.1494ZM7.44289 10.4198C8.99932 10.4198 10.2611 9.12945 10.2611 7.53774C10.2611 5.94601 8.99932 4.65566 7.44289 4.65566C5.88645 4.65566 4.62471 5.94601 4.62471 7.53774C4.62471 9.12945 5.88645 10.4198 7.44289 10.4198Z" fill="white"/>
</mask>
<g mask="url(#mask0_26_19)">
<path d="M13.3682 7.57471C13.3682 10.9418 10.6991 13.6714 7.40667 13.6714V16.6274C12.2955 16.6274 16.2586 12.5744 16.2586 7.57471H13.3682ZM7.40667 1.47801C10.6991 1.47801 13.3682 4.20759 13.3682 7.57471H16.2586C16.2586 2.57505 12.2955 -1.47797 7.40667 -1.47797V1.47801ZM1.44513 7.57471C1.44513 4.20759 4.1142 1.47801 7.40667 1.47801V-1.47797C2.51785 -1.47797 -1.44531 2.57505 -1.44531 7.57471H1.44513ZM7.40667 13.6714C4.1142 13.6714 1.44513 10.9418 1.44513 7.57471H-1.44531C-1.44531 12.5744 2.51785 16.6274 7.40667 16.6274V13.6714ZM8.81576 7.53776C8.81576 8.31318 8.20103 8.94184 7.4428 8.94184V11.8978C9.79743 11.8978 11.7062 9.94577 11.7062 7.53776H8.81576ZM7.4428 6.13367C8.20103 6.13367 8.81576 6.7623 8.81576 7.53776H11.7062C11.7062 5.12976 9.79743 3.17769 7.4428 3.17769V6.13367ZM6.06984 7.53776C6.06984 6.7623 6.68453 6.13367 7.4428 6.13367V3.17769C5.08819 3.17769 3.1794 5.12976 3.1794 7.53776H6.06984ZM7.4428 8.94184C6.68453 8.94184 6.06984 8.31318 6.06984 7.53776H3.1794C3.1794 9.94577 5.08819 11.8978 7.4428 11.8978V8.94184Z" fill="black"/>
</g>
<path fill-rule="evenodd" clip-rule="evenodd" d="M4.83974 13.0788C0.881149 7.91846 2.92117 4.04475 6.07954 1.62964C3.42595 2.24668 1.44531 4.67413 1.44531 7.57468C1.44531 10.0018 2.8322 12.0977 4.83974 13.0788Z" fill="#D5DAE1"/>
<path fill-rule="evenodd" clip-rule="evenodd" d="M28.1096 47H27.3147C26.371 47 25.533 46.5375 25.0055 45.8222C25.9785 45.1959 26.8928 44.4369 27.7233 43.5457C29.1022 42.066 30.2218 40.2534 31 38.1324V44.044C31 45.6765 29.7059 47 28.1096 47ZM31 18.0657C30.97 18.051 30.9397 18.0368 30.9089 18.0235C30.1088 17.6755 29.1828 17.8502 28.5567 18.467L20.0724 26.8255H12.0589V20.1006H24.4243V2.95597C24.4243 1.32343 25.7184 0 27.3147 0H28.1096C29.7059 0 31 1.32343 31 2.95597V18.0657ZM4.19116 38.3793V44.044C4.19116 45.6765 5.48526 47 7.0816 47H7.87648C8.79166 47 9.60742 46.565 10.1371 45.8863C9.15629 45.2629 8.23453 44.5034 7.39753 43.6076C6.05869 42.1747 4.96548 40.4249 4.19116 38.3793Z" fill="url(#paint0_linear_26_19)"/>
</g>
<path d="M48.5 4.21875C48.5 3.40625 48.8333 2.75 49.5 2.25C50.1667 1.75 50.8125 1.5 51.4375 1.5C52.3125 1.52083 53.0833 1.80208 53.75 2.34375C54.4167 2.88542 54.75 3.61458 54.75 4.53125L54.7812 22.0938L78.1562 22.0625L78.1875 4.53125C78.125 3.69792 78.4062 2.98958 79.0312 2.40625C79.6771 1.80208 80.4271 1.5 81.2812 1.5C82.1354 1.5 82.875 1.79167 83.5 2.375C84.125 2.95833 84.4375 3.67708 84.4375 4.53125L84.4062 44.25C84.4062 45.0833 84.0938 45.8021 83.4688 46.4062C82.8646 46.9896 82.1354 47.2812 81.2812 47.2812C80.4271 47.2812 79.6875 47 79.0625 46.4375C78.4583 45.8542 78.1562 45.1458 78.1562 44.3125V28.375L54.8125 28.4062L54.8438 44.3438C54.8438 45.1979 54.5417 45.9167 53.9375 46.5C53.3333 47.0833 52.5938 47.375 51.7188 47.375C50.8646 47.375 50.125 47.0833 49.5 46.5C48.8958 45.8958 48.5938 45.1771 48.5938 44.3438C48.5729 37.7188 48.5521 31.0938 48.5312 24.4688C48.5312 17.8229 48.5208 11.1875 48.5 4.5625V4.21875ZM105.469 12.7812C107.865 12.7812 110.094 13.2396 112.156 14.1562C114.24 15.0729 116.062 16.3438 117.625 17.9688C119.188 19.5938 120.406 21.4583 121.281 23.5625C122.177 25.6667 122.625 27.9062 122.625 30.2812C122.625 32.6146 122.177 34.8333 121.281 36.9375C120.385 39.0208 119.146 40.8646 117.562 42.4688C116 44.0521 114.177 45.3021 112.094 46.2188C110.031 47.1354 107.823 47.5938 105.469 47.5938C103.135 47.5938 100.927 47.1458 98.8438 46.25C96.7812 45.3542 94.9583 44.1146 93.375 42.5312C91.8125 40.9479 90.5833 39.1146 89.6875 37.0312C88.7917 34.9271 88.3438 32.6771 88.3438 30.2812C88.3438 27.9062 88.7917 25.6667 89.6875 23.5625C90.5833 21.4583 91.8125 19.6042 93.375 18C94.9583 16.375 96.7812 15.1042 98.8438 14.1875C100.906 13.25 103.115 12.7812 105.469 12.7812ZM94.6562 30.3438C94.6562 32.3646 95.1458 34.2083 96.125 35.875C97.125 37.5208 98.4479 38.8333 100.094 39.8125C101.74 40.7917 103.542 41.2812 105.5 41.2812C107.5 41.2812 109.312 40.7812 110.938 39.7812C112.583 38.7604 113.885 37.4167 114.844 35.75C115.823 34.0833 116.312 32.2604 116.312 30.2812C116.312 28.2604 115.833 26.4062 114.875 24.7188C113.917 23.0104 112.615 21.6458 110.969 20.625C109.344 19.6042 107.51 19.0938 105.469 19.0938C103.406 19.0938 101.562 19.6146 99.9375 20.6562C98.3125 21.6771 97.0208 23.0417 96.0625 24.75C95.125 26.4375 94.6562 28.3021 94.6562 30.3438ZM142.844 12.7812C145.24 12.7812 147.469 13.2396 149.531 14.1562C151.615 15.0729 153.438 16.3438 155 17.9688C156.562 19.5938 157.781 21.4583 158.656 23.5625C159.552 25.6667 160 27.9062 160 30.2812C160 32.6146 159.552 34.8333 158.656 36.9375C157.76 39.0208 156.521 40.8646 154.938 42.4688C153.375 44.0521 151.552 45.3021 149.469 46.2188C147.406 47.1354 145.198 47.5938 142.844 47.5938C140.51 47.5938 138.302 47.1458 136.219 46.25C134.156 45.3542 132.333 44.1146 130.75 42.5312C129.188 40.9479 127.958 39.1146 127.062 37.0312C126.167 34.9271 125.719 32.6771 125.719 30.2812C125.719 27.9062 126.167 25.6667 127.062 23.5625C127.958 21.4583 129.188 19.6042 130.75 18C132.333 16.375 134.156 15.1042 136.219 14.1875C138.281 13.25 140.49 12.7812 142.844 12.7812ZM132.031 30.3438C132.031 32.3646 132.521 34.2083 133.5 35.875C134.5 37.5208 135.823 38.8333 137.469 39.8125C139.115 40.7917 140.917 41.2812 142.875 41.2812C144.875 41.2812 146.688 40.7812 148.312 39.7812C149.958 38.7604 151.26 37.4167 152.219 35.75C153.198 34.0833 153.688 32.2604 153.688 30.2812C153.688 28.2604 153.208 26.4062 152.25 24.7188C151.292 23.0104 149.99 21.6458 148.344 20.625C146.719 19.6042 144.885 19.0938 142.844 19.0938C140.781 19.0938 138.938 19.6146 137.312 20.6562C135.688 21.6771 134.396 23.0417 133.438 24.75C132.5 26.4375 132.031 28.3021 132.031 30.3438ZM164.5 4.5625C164.5 3.70833 164.802 2.97917 165.406 2.375C166.031 1.75 166.771 1.4375 167.625 1.4375C168.479 1.4375 169.208 1.75 169.812 2.375C170.438 2.97917 170.75 3.70833 170.75 4.5625V26.9062L183.406 13.75C183.99 13.0833 184.75 12.75 185.688 12.75C186.542 12.75 187.271 13.0625 187.875 13.6875C188.5 14.2917 188.812 15.0208 188.812 15.875C188.812 16.75 188.51 17.4896 187.906 18.0938L177.781 28.625L188.438 42.625C188.875 43.1667 189.094 43.8125 189.094 44.5625C189.094 45.4167 188.781 46.1562 188.156 46.7812C187.552 47.3854 186.823 47.6875 185.969 47.6875C185.531 47.6875 185.073 47.5521 184.594 47.2812C184.115 47.0312 183.74 46.7396 183.469 46.4062L173.406 33.1562L170.75 35.9062V44.4688C170.75 45.3229 170.438 46.0625 169.812 46.6875C169.208 47.2917 168.479 47.5938 167.625 47.5938C166.771 47.5938 166.031 47.2917 165.406 46.6875C164.802 46.0625 164.5 45.3229 164.5 44.4688V4.5625Z" fill="#FB8500"/>
<path d="M193 4.21875C193 3.40625 193.333 2.75 194 2.25C194.667 1.75 195.312 1.5 195.938 1.5C196.812 1.52083 197.583 1.80208 198.25 2.34375C198.917 2.88542 199.25 3.61458 199.25 4.53125L199.281 22.0938L222.656 22.0625L222.688 4.53125C222.625 3.69792 222.906 2.98958 223.531 2.40625C224.177 1.80208 224.927 1.5 225.781 1.5C226.635 1.5 227.375 1.79167 228 2.375C228.625 2.95833 228.938 3.67708 228.938 4.53125L228.906 44.25C228.906 45.0833 228.594 45.8021 227.969 46.4062C227.365 46.9896 226.635 47.2812 225.781 47.2812C224.927 47.2812 224.188 47 223.562 46.4375C222.958 45.8542 222.656 45.1458 222.656 44.3125V28.375L199.312 28.4062L199.344 44.3438C199.344 45.1979 199.042 45.9167 198.438 46.5C197.833 47.0833 197.094 47.375 196.219 47.375C195.365 47.375 194.625 47.0833 194 46.5C193.396 45.8958 193.094 45.1771 193.094 44.3438C193.073 37.7188 193.052 31.0938 193.031 24.4688C193.031 17.8229 193.021 11.1875 193 4.5625V4.21875ZM235.188 12.5938C235.792 12.5938 236.354 12.7708 236.875 13.125C237.417 13.4792 237.802 13.9167 238.031 14.4375L248.656 38.5938L257.75 14.6562C257.979 14.0938 258.354 13.625 258.875 13.25C259.417 12.875 260.01 12.6875 260.656 12.6875C261.51 12.6875 262.24 13 262.844 13.625C263.469 14.2292 263.781 14.9583 263.781 15.8125C263.781 16.25 263.698 16.6562 263.531 17.0312L252.031 47.0312C251.99 47.3021 251.917 47.5417 251.812 47.75C251.708 47.9583 251.604 48.1458 251.5 48.3125L249.75 52.6875C249.312 53.7708 248.792 54.9167 248.188 56.125C247.583 57.3542 246.75 58.5104 245.688 59.5938C244.667 60.6562 243.417 61.5521 241.938 62.2812C240.479 63.0104 238.948 63.375 237.344 63.375C236.469 63.375 235.729 63.0521 235.125 62.4062C234.521 61.7812 234.219 61.0417 234.219 60.1875C234.219 59.3542 234.5 58.625 235.062 58C235.646 57.3958 236.344 57.0833 237.156 57.0625C238.99 56.9375 240.406 56.2188 241.406 54.9062C242.406 53.6146 243.26 52.0833 243.969 50.3125L245.469 46.5L232.344 17.0625C232.156 16.625 232.062 16.1771 232.062 15.7188C232.062 14.8646 232.365 14.1354 232.969 13.5312C233.594 12.9062 234.333 12.5938 235.188 12.5938ZM300.875 30.25C300.875 32.6042 300.438 34.8958 299.562 37.125C298.708 39.3542 297.417 41.3229 295.688 43.0312C294.167 44.5104 292.417 45.6562 290.438 46.4688C288.458 47.2812 286.406 47.6875 284.281 47.6875C282.115 47.6875 280.188 47.2292 278.5 46.3125C276.833 45.3958 275.323 44.1562 273.969 42.5938V55.75C273.969 56.6042 273.656 57.3333 273.031 57.9375C272.427 58.5625 271.698 58.875 270.844 58.875C269.99 58.875 269.25 58.5625 268.625 57.9375C268.021 57.3333 267.719 56.6042 267.719 55.75V15.8438C267.719 14.9896 268.021 14.2604 268.625 13.6562C269.25 13.0312 269.99 12.7188 270.844 12.7188C271.698 12.7188 272.333 13.0312 272.75 13.6562C273.188 14.2604 273.469 14.9896 273.594 15.8438L273.969 18.375C275.156 16.6667 276.719 15.3229 278.656 14.3438C280.615 13.3646 282.562 12.875 284.5 12.875C286.854 12.875 289.021 13.3438 291 14.2812C293 15.2188 294.74 16.5 296.219 18.125C297.698 19.7292 298.844 21.5729 299.656 23.6562C300.469 25.7396 300.875 27.9375 300.875 30.25ZM284.562 19.125C283.208 19.125 281.865 19.4271 280.531 20.0312C279.198 20.6146 278.062 21.4271 277.125 22.4688C276.188 23.4896 275.458 24.7083 274.938 26.125C274.438 27.5208 274.188 28.9479 274.188 30.4062C274.188 32.4062 274.625 34.25 275.5 35.9375C276.375 37.625 277.583 38.9792 279.125 40C280.667 41.0208 282.427 41.5312 284.406 41.5312C286.385 41.5312 288.146 41 289.688 39.9375C291.229 38.8542 292.438 37.4583 293.312 35.75C294.208 34.0208 294.656 32.1875 294.656 30.25C294.656 28.2917 294.219 26.4688 293.344 24.7812C292.469 23.0938 291.271 21.7292 289.75 20.6875C288.229 19.6458 286.5 19.125 284.562 19.125ZM320.656 12.875C323.427 12.875 325.969 13.5625 328.281 14.9375C330.594 16.3125 332.448 18.1667 333.844 20.5C335.26 22.8125 335.969 25.3854 335.969 28.2188C335.969 28.8021 335.938 29.3958 335.875 30C335.792 30.7708 335.438 31.4271 334.812 31.9688C334.208 32.4896 333.521 32.75 332.75 32.75L310.906 32.7812C311.26 34.2812 311.927 35.6875 312.906 37C313.885 38.3125 315.073 39.375 316.469 40.1875C317.885 41 319.427 41.4062 321.094 41.4062C322.885 41.4062 324.49 40.9688 325.906 40.0938C327.323 39.2188 328.427 38.2083 329.219 37.0625C329.469 36.6667 329.844 36.3333 330.344 36.0625C330.865 35.7917 331.354 35.6562 331.812 35.6562C332.667 35.6562 333.396 35.9688 334 36.5938C334.625 37.2188 334.938 37.9583 334.938 38.8125C334.938 39.4792 334.75 40.0729 334.375 40.5938C333.083 42.4896 331.302 44.1354 329.031 45.5312C326.781 46.9062 324.167 47.5938 321.188 47.5938C318.792 47.5938 316.562 47.125 314.5 46.1875C312.458 45.25 310.677 43.9688 309.156 42.3438C307.635 40.7188 306.448 38.8542 305.594 36.75C304.76 34.625 304.344 32.3854 304.344 30.0312C304.344 27.7604 304.76 25.6042 305.594 23.5625C306.427 21.5 307.583 19.6667 309.062 18.0625C310.562 16.4583 312.302 15.1979 314.281 14.2812C316.26 13.3438 318.385 12.875 320.656 12.875ZM329.531 26.5C329.135 24.4583 328.115 22.7188 326.469 21.2812C324.823 19.8438 322.885 19.125 320.656 19.125C318.385 19.125 316.375 19.8646 314.625 21.3438C312.896 22.8229 311.729 24.5521 311.125 26.5312L329.531 26.5Z" fill="#FFB703"/>
<defs>
<linearGradient id="paint0_linear_26_19" x1="17.5956" y1="0" x2="17.5956" y2="47" gradientUnits="userSpaceOnUse">
<stop stop-color="#FB8500"/>
<stop offset="1" stop-color="#FFB703"/>
</linearGradient>
<clipPath id="clip0_26_19">
<rect width="31" height="47" fill="white"/>
</clipPath>
</defs>
</svg>
